<svg xmlns="http://www.w3.org/2000/svg" width="121" height="121" viewBox="0 0 121 121" fill="none">
<path d="M99 120.5C99.1 120.5 99.1 120.5 99 120.5L132 60.3L99 0H33L0 60.3L33 120.6H98.9L99 120.5Z" fill="#27BAB8"/>
<path d="M96.7999 117C96.7999 116.9 96.7999 116.9 96.7999 117L127.9 60.4L96.7999 3.59998H34.4999L3.3999 60.3L34.4999 117H96.6999C96.6999 117 96.6999 117 96.7999 117Z" fill="#303A42"/>
<path d="M104 80.4L39.2 41.2L42.5 35L107.3 74.2L104 80.4Z" fill="#0CA7E0"/>
<path d="M69.5999 43.1L38.3999 24.2L41.6999 18L72.8999 36.9L69.5999 43.1Z" fill="white"/>
<path d="M104.8 64.6L73.7 45.7L77 39.5L108.1 58.4L104.8 64.6Z" fill="#29BAB9"/>
<path d="M62.3001 84.8L20.8 59.7L24.1 53.5L65.6 78.6L62.3001 84.8Z" fill="#29BAB9"/>
<path d="M73.1 75.7L41.8 56.7999L45.1 50.7L76.4 69.6L73.1 75.7Z" fill="white"/>
<path d="M89.7 101.7L66.7 87.8L70.1 81.6L93 95.5L89.7 101.7Z" fill="#0CA7E0"/>
</svg>
